HIERARCHY
ROOT Hips
{
 OFFSET 0.000000 0.000000 0.000000
 CHANNELS 6 Xposition Yposition Zposition Yrotation Xrotation Zrotation
 JOINT Chest
 {
  OFFSET 0.000000 10.354800 0.006500
  CHANNELS 3 Yrotation Xrotation Zrotation
  JOINT Chest2
  {
   OFFSET 0.000000 10.435800 -0.013200
   CHANNELS 3 Yrotation Xrotation Zrotation
   JOINT Chest3
   {
    OFFSET 0.000000 10.393700 0.000000
    CHANNELS 3 Yrotation Xrotation Zrotation
    JOINT Chest4
    {
     OFFSET 0.000000 10.383100 0.000000
     CHANNELS 3 Yrotation Xrotation Zrotation
     JOINT Neck
     {
      OFFSET 0.000000 15.694000 0.000000
      CHANNELS 3 Yrotation Xrotation Zrotation
      JOINT Head
      {
       OFFSET 0.000000 9.711000 -0.028000
       CHANNELS 3 Yrotation Xrotation Zrotation
       End Site
       {
        OFFSET 0.000000 18.578700 -0.014800
       }
      }
     }
     JOINT RightCollar
     {
      OFFSET -3.157200 10.367500 0.000000
      CHANNELS 3 Yrotation Xrotation Zrotation
      JOINT RightShoulder
      {
       OFFSET -14.482500 0.000000 0.000000
       CHANNELS 3 Yrotation Xrotation Zrotation
       JOINT RightElbow
       {
        OFFSET 0.000000 -31.707800 0.000000
        CHANNELS 3 Yrotation Xrotation Zrotation
        JOINT RightWrist
        {
         OFFSET 0.000000 -25.659300 0.000000
         CHANNELS 3 Yrotation Xrotation Zrotation
         End Site
         {
          OFFSET 0.000000 -18.994300 0.000000
         }
        }
       }
      }
     }
     JOINT LeftCollar
     {
      OFFSET 3.157200 10.367500 0.000000
      CHANNELS 3 Yrotation Xrotation Zrotation
      JOINT LeftShoulder
      {
       OFFSET 14.482500 0.000000 0.000000
       CHANNELS 3 Yrotation Xrotation Zrotation
       JOINT LeftElbow
       {
        OFFSET 0.000000 -31.707800 0.000000
        CHANNELS 3 Yrotation Xrotation Zrotation
        JOINT LeftWrist
        {
         OFFSET 0.000000 -25.659300 0.000000
         CHANNELS 3 Yrotation Xrotation Zrotation
         End Site
         {
          OFFSET 0.000000 -18.994300 0.000000
         }
        }
       }
      }
     }
    }
   }
  }
 }
 JOINT RightHip
 {
  OFFSET -8.365600 -0.032100 -0.003200
  CHANNELS 3 Yrotation Xrotation Zrotation
  JOINT RightKnee
  {
   OFFSET 0.000000 -43.980000 0.003100
   CHANNELS 3 Yrotation Xrotation Zrotation
   JOINT RightAnkle
   {
    OFFSET 0.000000 -42.882800 0.005200
    CHANNELS 3 Yrotation Xrotation Zrotation
    JOINT RightToe
    {
     OFFSET 0.000000 -4.915500 10.826300
     CHANNELS 3 Yrotation Xrotation Zrotation
     End Site
     {
      OFFSET 0.000000 -1.517500 6.175900
     }
    }
   }
  }
 }
 JOINT LeftHip
 {
  OFFSET 8.365600 -0.032100 -0.003200
  CHANNELS 3 Yrotation Xrotation Zrotation
  JOINT LeftKnee
  {
   OFFSET 0.000000 -43.980000 0.003100
   CHANNELS 3 Yrotation Xrotation Zrotation
   JOINT LeftAnkle
   {
    OFFSET 0.000000 -42.882800 0.005200
    CHANNELS 3 Yrotation Xrotation Zrotation
    JOINT LeftToe
    {
     OFFSET 0.000000 -4.915500 10.826300
     CHANNELS 3 Yrotation Xrotation Zrotation
     End Site
     {
      OFFSET 0.000000 -1.517500 6.175900
     }
    }
   }
  }
 }
}
MOTION
Frames: 6
Frame Time: 0.008333
-6.289400 126.182615 12.015991 178.662578 -15.826496 -6.276134 0.524995 9.760831 3.084004 -0.001308 0.589625 0.180482 0.028615 1.033210 0.321064 0.462828 9.060934 2.858793 -4.675719 19.282207 -1.366617 -4.672373 -5.167877 -0.380982 4.341906 4.477169 -5.479468 25.371355 -26.145391 -19.271011 154.419263 -85.420730 -132.300302 -13.224568 -18.331174 -28.723585 -2.335673 8.748611 0.897313 8.763120 -12.960979 4.316075 -145.377544 -53.938506 143.063059 1.754572 -10.011367 35.253127 4.176065 -61.549162 -0.571760 -154.774978 77.629133 -147.890141 -0.250017 -23.340587 1.859660 0.004289 0.000853 0.001947 -22.068861 -61.089289 20.554871 152.824317 76.725634 146.958519 -1.834976 -21.577392 -0.413918 -0.005848 0.005790 -0.002656
-6.282566 126.181562 12.013208 178.631654 -15.818055 -6.285087 0.520838 9.733536 3.084799 0.016315 0.596194 0.185166 0.029194 1.029557 0.320040 0.455886 9.016154 2.843976 -4.652262 19.333468 -1.369597 -4.665313 -5.144598 -0.392032 4.343322 4.420204 -5.487898 25.287500 -26.340009 -19.326096 157.529546 -84.496998 -135.560877 -12.952730 -18.608723 -29.266888 -2.344081 8.678789 0.925904 8.860905 -13.337095 4.378475 -145.948951 -52.848073 144.117215 1.746739 -10.149091 36.221161 4.070842 -61.574779 -0.478820 -154.763704 77.630753 -147.877313 -0.224145 -23.327021 1.819544 0.005996 -0.005170 0.002722 -22.112194 -61.097601 20.576205 152.848573 76.721246 147.037776 -1.778756 -21.579073 -0.493768 0.008417 0.006475 0.003822
-6.278910 126.179371 12.014039 178.548944 -15.794045 -6.260269 0.557196 9.669276 3.064136 0.018424 0.588528 0.183010 0.030264 1.009146 0.316084 0.491744 8.954337 2.830039 -4.647317 19.449258 -1.363926 -4.631981 -5.098413 -0.444589 4.339831 4.419814 -5.479564 25.199713 -26.557159 -19.388667 159.354886 -83.559243 -137.530042 -12.651738 -18.917902 -29.799158 -2.374274 8.669275 0.965481 8.933369 -13.727640 4.440298 -146.555057 -51.865977 145.150487 1.709251 -10.284391 37.064181 4.074660 -61.621817 -0.451663 -154.780557 77.629982 -147.881434 -0.187847 -23.319355 1.764400 0.009764 -0.003550 0.004433 -22.092768 -61.130020 20.589361 152.762122 76.699033 146.957413 -1.744214 -21.572949 -0.518791 0.002148 0.005118 0.000975
-6.276040 126.178451 12.011238 178.527823 -15.786680 -6.245530 0.569996 9.655434 3.052759 0.018690 0.587433 0.182736 0.027966 0.999637 0.315492 0.498724 8.938892 2.827389 -4.612310 19.447496 -1.411550 -4.619301 -5.020803 -0.452677 4.352455 4.326190 -5.506604 25.121018 -26.802925 -19.461180 160.392074 -82.631508 -138.701550 -12.350029 -19.263295 -30.344458 -2.401542 8.570174 0.980397 9.005218 -14.133765 4.496645 -147.228946 -50.963260 146.175002 1.641144 -10.418020 37.785123 4.031130 -61.643208 -0.434164 -154.814967 77.625987 -147.910229 -0.161684 -23.315233 1.726887 0.010214 -0.006805 0.004637 -22.109142 -61.144710 20.574892 152.664729 76.674752 146.865110 -1.713624 -21.558432 -0.536911 -0.004414 0.006266 -0.002004
-6.271647 126.177922 12.009193 178.510149 -15.778829 -6.239526 0.571422 9.627202 3.051451 0.019496 0.583281 0.181539 0.034790 1.007767 0.313913 0.504963 8.923681 2.824564 -4.586439 19.467523 -1.427342 -4.601379 -4.969995 -0.471756 4.379397 4.229035 -5.537840 25.068913 -27.076290 -19.545483 160.977394 -81.741601 -139.419697 -12.067044 -19.652609 -30.924953 -2.433240 8.474758 0.989777 9.087239 -14.544969 4.547401 -147.897635 -50.100278 147.157503 1.583494 -10.578033 38.391693 3.988585 -61.661559 -0.410136 -154.824070 77.622449 -147.904386 -0.139522 -23.313632 1.689988 0.013016 -0.008077 0.005909 -22.147186 -61.156665 20.574308 152.549292 76.649192 146.773150 -1.687394 -21.554023 -0.584682 -0.004977 0.005992 -0.002260
-6.266391 126.177710 12.008031 178.477139 -15.772552 -6.234690 0.593214 9.598901 3.059550 0.014884 0.557417 0.183701 0.042735 1.023903 0.308910 0.525439 8.897074 2.819229 -4.589940 19.518164 -1.433533 -4.574547 -4.923990 -0.492485 4.404528 4.150620 -5.568624 25.063498 -27.372056 -19.645466 161.343826 -80.912551 -139.922230 -11.802794 -20.081937 -31.554309 -2.490784 8.405438 0.992320 9.158810 -14.949464 4.608283 -148.459351 -49.259982 148.043509 1.560489 -10.816583 38.935508 3.992011 -61.675805 -0.395634 -154.800503 77.617786 -147.856535 -0.127863 -23.317086 1.668577 0.017147 -0.004433 0.007785 -22.156506 -61.166369 20.582732 152.508717 76.636722 146.765982 -1.668493 -21.553158 -0.630067 0.004569 0.006410 0.002075
